<mxfile host="app.diagrams.net" modified="2023-10-06T07:40:11.865Z" agent="Mozilla/5.0 (X11; Ubuntu; Linux x86_64; rv:109.0) Gecko/20100101 Firefox/118.0" etag="OBDc7uSnLjJtMyaQYpEM" version="22.0.3" type="device">
  <diagram name="Página-1" id="M8m2TjK1RZhYvrJhqdWu">
    <mxGraphModel dx="880" dy="347" grid="1" gridSize="10" guides="1" tooltips="1" connect="1" arrows="1" fold="1" page="1" pageScale="1" pageWidth="827" pageHeight="1169" math="0" shadow="0">
      <root>
        <mxCell id="0" />
        <mxCell id="1" parent="0" />
        <mxCell id="qDFt8l1A0MjdENY5Z0M2-1" value="&lt;p style=&quot;margin:0px;margin-top:4px;text-align:center;text-decoration:underline;&quot;&gt;&lt;b&gt;Servidor1:MailServer&lt;/b&gt;&lt;/p&gt;&lt;hr&gt;&lt;p style=&quot;margin:0px;margin-left:8px;&quot;&gt;cliente1 = Pablo Garcia&lt;br&gt;cliente2 = Esther Roca&lt;br&gt;&lt;br&gt;&lt;/p&gt;" style="verticalAlign=top;align=left;overflow=fill;fontSize=12;fontFamily=Helvetica;html=1;whiteSpace=wrap;" parent="1" vertex="1">
          <mxGeometry x="450" y="100" width="160" height="90" as="geometry" />
        </mxCell>
        <mxCell id="DMWD__5o4s1hjAT7pGzw-1" value="&lt;p style=&quot;margin:0px;margin-top:4px;text-align:center;text-decoration:underline;&quot;&gt;&lt;b&gt;mensaje1:MailItem&lt;/b&gt;&lt;/p&gt;&lt;hr&gt;&lt;p style=&quot;margin:0px;margin-left:8px;&quot;&gt;remetente =cliente1&lt;br&gt;destinatario = cliente2&lt;br&gt;mensaje = &quot;Hola Esther. Llegaré 10 minutos más tarde&lt;br&gt;&lt;/p&gt;" style="verticalAlign=top;align=left;overflow=fill;fontSize=12;fontFamily=Helvetica;html=1;whiteSpace=wrap;" vertex="1" parent="1">
          <mxGeometry x="160" y="100" width="160" height="120" as="geometry" />
        </mxCell>
        <mxCell id="DMWD__5o4s1hjAT7pGzw-2" value="&lt;p style=&quot;margin:0px;margin-top:4px;text-align:center;text-decoration:underline;&quot;&gt;&lt;b&gt;mensaje2:MailItem&lt;/b&gt;&lt;/p&gt;&lt;hr&gt;&lt;p style=&quot;margin:0px;margin-left:8px;&quot;&gt;remetente =cliente2&lt;br&gt;destinatario = cliente1&lt;br&gt;mensaje = &quot;Hola Pablo. No te preocupes, te esperamos.&lt;br&gt;&lt;/p&gt;" style="verticalAlign=top;align=left;overflow=fill;fontSize=12;fontFamily=Helvetica;html=1;whiteSpace=wrap;" vertex="1" parent="1">
          <mxGeometry x="160" y="240" width="170" height="120" as="geometry" />
        </mxCell>
        <mxCell id="DMWD__5o4s1hjAT7pGzw-3" value="&lt;p style=&quot;margin:0px;margin-top:4px;text-align:center;text-decoration:underline;&quot;&gt;&lt;b&gt;mensaje3:MailItem&lt;/b&gt;&lt;/p&gt;&lt;hr&gt;&lt;p style=&quot;margin:0px;margin-left:8px;&quot;&gt;remetente =cliente1&lt;br&gt;destinatario = cliente2&lt;br&gt;mensaje = &quot;Hola Esther. Muchas gracias!!&lt;br&gt;&lt;/p&gt;" style="verticalAlign=top;align=left;overflow=fill;fontSize=12;fontFamily=Helvetica;html=1;whiteSpace=wrap;" vertex="1" parent="1">
          <mxGeometry x="430" y="240" width="160" height="120" as="geometry" />
        </mxCell>
      </root>
    </mxGraphModel>
  </diagram>
</mxfile>
